<svg xmlns="http://www.w3.org/2000/svg" xmlns:xlink="http://www.w3.org/1999/xlink" viewBox="0 0 1878.63185 1177.28827"><defs><style>.cls-1,.cls-2{fill:#999;}.cls-2{opacity:0.64;}.cls-3{font-size:45px;font-family:Phosphate-Solid, Phosphate;letter-spacing:0.45em;}.cls-11,.cls-3{fill:#fff;}.cls-4{fill:#666;}.cls-5{fill:url(#Dégradé_sans_nom_48);}.cls-6{fill:#f90;}.cls-7{fill:url(#Dégradé_sans_nom_42);}.cls-8{fill:url(#Dégradé_sans_nom_42-2);}.cls-9{fill:url(#Dégradé_sans_nom_42-3);}.cls-10{fill:url(#Dégradé_sans_nom_42-4);}</style><linearGradient id="Dégradé_sans_nom_48" x1="750.17504" y1="990.90069" x2="87.36815" y2="990.90069" gradientUnits="userSpaceOnUse"><stop offset="0.00076" stop-color="#066"/><stop offset="0.06198" stop-color="#0e7474"/><stop offset="0.16795" stop-color="#1f8585"/><stop offset="0.29985" stop-color="#2a9090"/><stop offset="0.48497" stop-color="#319797"/><stop offset="0.99885" stop-color="#399"/></linearGradient><linearGradient id="Dégradé_sans_nom_42" x1="1853.24974" y1="999.18634" x2="1607.02854" y2="999.18634" gradientUnits="userSpaceOnUse"><stop offset="0.00076" stop-color="#066"/><stop offset="0.06205" stop-color="#0e7474"/><stop offset="0.16814" stop-color="#1f8585"/><stop offset="0.3002" stop-color="#2a9090"/><stop offset="0.48553" stop-color="#319797"/><stop offset="1" stop-color="#399"/></linearGradient><linearGradient id="Dégradé_sans_nom_42-2" x1="89.69656" y1="1330.70307" x2="861.1159" y2="1330.70307" xlink:href="#Dégradé_sans_nom_42"/><linearGradient id="Dégradé_sans_nom_42-3" x1="1561.73464" y1="990.90069" x2="898.92776" y2="990.90069" xlink:href="#Dégradé_sans_nom_42"/><linearGradient id="Dégradé_sans_nom_42-4" x1="901.25617" y1="1330.70307" x2="1672.67551" y2="1330.70307" xlink:href="#Dégradé_sans_nom_42"/></defs><title>logo</title><g id="Calque_1" data-name="Calque 1"><path class="cls-1" d="M1202.17307,276.25424c.07107.20184.13616.40432.206.60626C1202.31034,276.65842,1202.24289,276.456,1202.17307,276.25424Z" transform="translate(-87.36815 -253.50732)"/><path class="cls-2" d="M1201.97935,275.71239c.0636.18092.13092.36065.19372.54185-.02435-.06914-.04614-.13854-.07062-.2077C1202.06271,275.93429,1202.0194,275.8244,1201.97935,275.71239Z" transform="translate(-87.36815 -253.50732)"/><text class="cls-3" transform="translate(970.69337 37.50732)">Assurance</text><path class="cls-4" d="M1834.68042,620.11743c-3.891-1.19785-43.35737-2.913-43.35737-2.913H142.53087q-23.00242,0-39.07359,27.36641Q87.35019,671.96777,87.36815,711.0321q0,39.12542,16.08913,66.46128,16.08015,27.397,39.07359,27.36641H1846.96735c47.33121,0,90.82854,33.54222,111.2418,86.88963a48.89269,48.89269,0,0,1,2.38249,7.3421C1960.59164,725.26113,1902.74833,641.06507,1834.68042,620.11743Z" transform="translate(-87.36815 -253.50732)"/><path class="cls-1" d="M747.85089,712.36123c.33392.94828.63968,1.89952.968,2.84826C748.49582,714.26011,748.17891,713.30916,747.85089,712.36123Z" transform="translate(-87.36815 -253.50732)"/><path class="cls-2" d="M746.94077,709.81554c.2988.85.6151,1.69437.91012,2.54569-.1144-.32483-.21675-.65089-.33179-.9758C747.33238,710.85806,747.12891,710.34179,746.94077,709.81554Z" transform="translate(-87.36815 -253.50732)"/><path class="cls-5" d="M621.49121,920.451c-3.97666-.71975-7.99-1.33569-12.06531-1.75033H143.74557q-23.50894,0-39.934,16.44342-16.46178,16.46177-16.44342,39.934,0,23.50895,16.44342,39.934,16.43424,16.46176,39.934,16.44341h563.507q17.61793,0,31.125,12.91983a42.73481,42.73481,0,0,1,11.79749,18.72537A157.39714,157.39714,0,0,0,621.49121,920.451Z" transform="translate(-87.36815 -253.50732)"/><path class="cls-6" d="M1953.66744,1014.42483a153.006,153.006,0,0,0-34.06136-49.91751,164.98451,164.98451,0,0,0-50.50478-33.4741,154.95328,154.95328,0,0,0-61.6628-12.33256h-52.85384a56.71319,56.71319,0,0,0-20.85019,3.80117A157.42735,157.42735,0,0,1,1853.24974,1075.271c0,.2013-.01434.39916-.01491.59988,0,.07341.01032.14338.01032.21679v298.33053q0,23.50895,16.44342,39.934,16.43424,16.46177,39.934,16.44341,23.4814,0,39.934-16.44341,16.43424-16.43424,16.44342-39.934V1076.08764A154.95315,154.95315,0,0,0,1953.66744,1014.42483Z" transform="translate(-87.36815 -253.50732)"/><path class="cls-7" d="M1733.73447,922.50183a55.30452,55.30452,0,0,0-19.08382,12.64225q-16.46177,16.46177-16.44341,39.934,0,23.50895,16.44341,39.934,16.43424,16.46176,39.934,16.44341H1808.613q17.61794,0,31.125,13.50709,13.40444,13.432,13.49677,30.90825c.00057-.20072.01491-.39858.01491-.59988A157.42735,157.42735,0,0,0,1733.73447,922.50183Z" transform="translate(-87.36815 -253.50732)"/><path class="cls-8" d="M844.67249,1334.48416q-16.46177-16.43424-39.934-16.44341h-605.79v-43.4576q0-17.618,10.57076-29.36324a42.67679,42.67679,0,0,1,25.83966-14.09436h2.32841v-.515A157.396,157.396,0,0,0,89.69656,1387.69586c0,1.23245.06481,2.44885.09291,3.67442a54.42425,54.42425,0,0,0,14.0221,22.9819q16.43424,16.46177,39.934,16.44341H804.73848q23.48142,0,39.934-16.44341,16.43424-16.43424,16.44341-39.934Q861.1159,1350.93675,844.67249,1334.48416Z" transform="translate(-87.36815 -253.50732)"/><path class="cls-6" d="M848.78334,1013.83757A154.66248,154.66248,0,0,0,814.722,964.50732a164.98458,164.98458,0,0,0-50.50477-33.4741,154.95332,154.95332,0,0,0-61.66281-12.33256H609.4259c4.07529.41464,8.08865,1.03058,12.06531,1.75033A157.39714,157.39714,0,0,1,750.175,1063.10071c.308,4.02082.51443,8.07031.51443,12.17026,0,4.04892-.203,8.04737-.503,12.01886a40.02266,40.02266,0,0,1-11.809,18.74831q-13.51626,12.33256-31.125,12.33257H228.31171q-30.55613,0-55.79016,11.158a146.088,146.088,0,0,0-44.63213,30.53777,134.7589,134.7589,0,0,0-29.9505,45.80665,148.86485,148.86485,0,0,0-10.57077,55.79016v112.75485a58.25117,58.25117,0,0,0,2.42132,16.95211c-.0281-1.22557-.09291-2.442-.09291-3.67442a157.30689,157.30689,0,0,1,44.7497-109.8753c32.74689-39.2177,103.20892-44.90626,103.241-46.695H702.5544a154.95315,154.95315,0,0,0,61.66281-12.33256A164.98473,164.98473,0,0,0,814.722,1185.3189a154.66259,154.66259,0,0,0,34.06136-49.33025q12.33257-28.18871,12.33256-61.07554Q861.1159,1042.04463,848.78334,1013.83757Z" transform="translate(-87.36815 -253.50732)"/><path class="cls-9" d="M1433.05081,920.451c-3.97665-.71975-7.99-1.33569-12.06531-1.75033H955.30518q-23.50894,0-39.934,16.44342-16.46177,16.46177-16.44341,39.934,0,23.50895,16.44341,39.934,16.43424,16.46176,39.934,16.44341h563.50694q17.618,0,31.125,12.91983a42.7347,42.7347,0,0,1,11.79748,18.72537A157.39713,157.39713,0,0,0,1433.05081,920.451Z" transform="translate(-87.36815 -253.50732)"/><path class="cls-10" d="M1656.23209,1334.48416q-16.46177-16.43424-39.934-16.44341h-605.79v-43.4576q0-17.618,10.57077-29.36324a42.67679,42.67679,0,0,1,25.83965-14.09436h2.32842v-.515a157.396,157.396,0,0,0-147.99074,157.08531c0,1.23245.0648,2.44885.09291,3.67442a54.42412,54.42412,0,0,0,14.02209,22.9819q16.43424,16.46177,39.934,16.44341h660.9929q23.48142,0,39.934-16.44341,16.43424-16.43424,16.44342-39.934Q1672.67551,1350.93675,1656.23209,1334.48416Z" transform="translate(-87.36815 -253.50732)"/><path class="cls-6" d="M1660.343,1013.83757a154.66264,154.66264,0,0,0-34.06136-49.33025,164.98451,164.98451,0,0,0-50.50478-33.4741,154.95332,154.95332,0,0,0-61.66281-12.33256h-93.1285c4.0753.41464,8.08866,1.03058,12.06531,1.75033a157.39713,157.39713,0,0,1,128.68383,142.64972c.308,4.02082.51443,8.07031.51443,12.17026,0,4.04892-.203,8.04737-.503,12.01886a40.02256,40.02256,0,0,1-11.809,18.74831q-13.51627,12.33256-31.125,12.33257H1039.87131q-30.55611,0-55.79015,11.158a146.08787,146.08787,0,0,0-44.63213,30.53777,134.75878,134.75878,0,0,0-29.95051,45.80665,148.86485,148.86485,0,0,0-10.57076,55.79016v112.75485a58.25084,58.25084,0,0,0,2.42132,16.95211c-.02811-1.22557-.09291-2.442-.09291-3.67442a157.30693,157.30693,0,0,1,44.74969-109.8753c32.7469-39.2177,103.20893-44.90626,103.24105-46.695H1514.114a154.95315,154.95315,0,0,0,61.66281-12.33256,164.98466,164.98466,0,0,0,50.50478-33.47409,154.66275,154.66275,0,0,0,34.06136-49.33025q12.33255-28.18871,12.33256-61.07554Q1672.67551,1042.04463,1660.343,1013.83757Z" transform="translate(-87.36815 -253.50732)"/><path class="cls-11" d="M320.88672,749.5166l-5.127-13.47656H272.10742l-5.12695,13.76953q-3.0044,8.0581-5.127,10.87695-2.1255,2.81837-6.958,2.81934a10.19835,10.19835,0,0,1-7.251-3.00293,9.19361,9.19361,0,0,1-3.14941-6.81152,15.18245,15.18245,0,0,1,.73242-4.541q.731-2.34375,2.417-6.51855l27.46582-69.72657q1.17041-3.00293,2.81983-7.21484a36.52937,36.52937,0,0,1,3.51562-6.99414,14.27688,14.27688,0,0,1,4.90723-4.50391,15.03848,15.03848,0,0,1,7.50732-1.72168,15.20822,15.20822,0,0,1,7.58057,1.72168,14.59188,14.59188,0,0,1,4.90722,4.43067,31.11059,31.11059,0,0,1,3.14942,5.82324q1.28026,3.11279,3.25928,8.3125l28.05175,69.28711q3.29591,7.91016,3.2959,11.499a9.52225,9.52225,0,0,1-3.11279,6.84863,10.23594,10.23594,0,0,1-7.50732,3.11231,9.74029,9.74029,0,0,1-4.39454-.915,9.00191,9.00191,0,0,1-3.07617-2.49023,22.86824,22.86824,0,0,1-2.67334-4.834Q321.91211,752.00733,320.88672,749.5166ZM277.82031,719.707h32.08008l-16.18652-44.31152Z" transform="translate(-87.36815 -253.50732)"/><path class="cls-11" d="M509.16309,729.44824a31.558,31.558,0,0,1-5.01709,17.50488,33.33348,33.33348,0,0,1-14.68506,12.15821q-9.668,4.39454-22.92481,4.39453-15.89429,0-26.2207-6.00586a34.91386,34.91386,0,0,1-11.90186-11.53613q-4.57836-7.2129-4.57763-14.02539a9.50695,9.50695,0,0,1,9.74121-9.59473,8.27049,8.27049,0,0,1,5.82275,2.19727,17.30451,17.30451,0,0,1,4.06494,6.51855,43.47548,43.47548,0,0,0,4.43116,8.56934,17.94,17.94,0,0,0,6.70166,5.67675q4.32055,2.23389,11.35254,2.2334,9.668,0,15.71044-4.50488,6.04248-4.50292,6.04248-11.24219a11.89323,11.89323,0,0,0-3.25927-8.67969,21.03135,21.03135,0,0,0-8.42285-5.08984q-5.16358-1.75781-13.80616-3.73535a101.26213,101.26213,0,0,1-19.37255-6.335,31.3032,31.3032,0,0,1-12.37793-9.88867Q425.886,691.80274,425.88672,682.5a26.73,26.73,0,0,1,4.834-15.74707A30.48459,30.48459,0,0,1,444.71,656.169a57.30126,57.30126,0,0,1,21.5332-3.69825,53.26471,53.26471,0,0,1,17.10205,2.4541,36.179,36.179,0,0,1,11.9751,6.51758,27.25983,27.25983,0,0,1,6.958,8.53321,19.68042,19.68042,0,0,1,2.19727,8.71582,10.30061,10.30061,0,0,1-2.74659,6.99511,8.75952,8.75952,0,0,1-6.84814,3.11231,7.8703,7.8703,0,0,1-5.67627-1.86817,25.1013,25.1013,0,0,1-4.21143-6.11523,27.7283,27.7283,0,0,0-7.03125-9.48438q-4.103-3.40722-13.18359-3.40625-8.42358,0-13.58643,3.69922-5.16357,3.69873-5.16357,8.89844a9.013,9.013,0,0,0,1.75781,5.56641,14.786,14.786,0,0,0,4.834,4.02832,32.45408,32.45408,0,0,0,6.22558,2.63672q3.148.95214,10.40039,2.7832a163.52354,163.52354,0,0,1,16.44287,4.6875,49.99611,49.99611,0,0,1,12.52442,6.22559,25.61939,25.61939,0,0,1,8.05664,9.26562A29.67414,29.67414,0,0,1,509.16309,729.44824Z" transform="translate(-87.36815 -253.50732)"/><path class="cls-11" d="M676.71191,729.44824a31.558,31.558,0,0,1-5.01709,17.50488,33.33339,33.33339,0,0,1-14.68505,12.15821q-9.668,4.39454-22.92481,4.39453-15.89428,0-26.2207-6.00586a34.91377,34.91377,0,0,1-11.90186-11.53613q-4.57836-7.2129-4.57763-14.02539a9.50695,9.50695,0,0,1,9.74121-9.59473,8.27049,8.27049,0,0,1,5.82275,2.19727,17.30451,17.30451,0,0,1,4.06494,6.51855,43.476,43.476,0,0,0,4.43115,8.56934,17.94014,17.94014,0,0,0,6.70166,5.67675q4.32057,2.23389,11.35254,2.2334,9.668,0,15.71045-4.50488,6.04248-4.50292,6.04248-11.24219a11.89323,11.89323,0,0,0-3.25927-8.67969,21.03132,21.03132,0,0,0-8.42286-5.08984q-5.16357-1.75781-13.80615-3.73535a101.26249,101.26249,0,0,1-19.37256-6.335,31.30327,31.30327,0,0,1-12.37793-9.88867q-4.57836-6.26075-4.57763-15.56348a26.73,26.73,0,0,1,4.834-15.74707,30.48459,30.48459,0,0,1,13.98926-10.584,57.30126,57.30126,0,0,1,21.5332-3.69825,53.26476,53.26476,0,0,1,17.102,2.4541,36.179,36.179,0,0,1,11.9751,6.51758,27.26,27.26,0,0,1,6.958,8.53321,19.68041,19.68041,0,0,1,2.19726,8.71582,10.3006,10.3006,0,0,1-2.74658,6.99511,8.75954,8.75954,0,0,1-6.84814,3.11231,7.8703,7.8703,0,0,1-5.67627-1.86817,25.101,25.101,0,0,1-4.21143-6.11523,27.7283,27.7283,0,0,0-7.03125-9.48438q-4.103-3.40722-13.18359-3.40625-8.42358,0-13.58643,3.69922-5.16357,3.69873-5.16357,8.89844a9.013,9.013,0,0,0,1.75781,5.56641,14.7859,14.7859,0,0,0,4.834,4.02832,32.45381,32.45381,0,0,0,6.22558,2.63672q3.14794.95214,10.40039,2.7832a163.52354,163.52354,0,0,1,16.44287,4.6875,49.99628,49.99628,0,0,1,12.52442,6.22559,25.61939,25.61939,0,0,1,8.05664,9.26562A29.67414,29.67414,0,0,1,676.71191,729.44824Z" transform="translate(-87.36815 -253.50732)"/><path class="cls-11" d="M762.81543,717.29V665.6543q0-6.5918,2.96631-9.8877a9.99277,9.99277,0,0,1,7.80029-3.2959,10.25127,10.25127,0,0,1,8.02,3.2959q2.96631,3.29591,2.96631,9.8877v52.80761a48.13939,48.13939,0,0,0,2.01416,15.05079,17.363,17.363,0,0,0,7.14111,9.375q5.12549,3.334,14.35547,3.333,12.74415,0,18.01758-6.77441,5.27343-6.7749,5.27344-20.54492V665.6543q0-6.66359,2.92968-9.92481a10.0195,10.0195,0,0,1,7.83692-3.25879,10.36805,10.36805,0,0,1,7.94678,3.25879q3.03809,3.26074,3.03955,9.92481V717.29q0,12.59766-2.45362,21.02051a32.46073,32.46073,0,0,1-9.26513,14.79492,35.97941,35.97941,0,0,1-13.62305,7.91015,59.65064,59.65064,0,0,1-18.16406,2.49024,74.9156,74.9156,0,0,1-21.31348-2.67285,34.09024,34.09024,0,0,1-14.57519-8.27735,33.34364,33.34364,0,0,1-8.27637-14.35546A73.00458,73.00458,0,0,1,762.81543,717.29Z" transform="translate(-87.36815 -253.50732)"/><path class="cls-11" d="M973.35742,715.752h-7.61719V750.249q0,6.81153-3.00293,10.03418a10.21835,10.21835,0,0,1-7.83691,3.22266,9.98518,9.98518,0,0,1-8.05664-3.36914q-2.85645-3.36768-2.85645-9.8877V667.63184q0-7.03125,3.14942-10.18067,3.14795-3.14795,10.18066-3.14941h35.376a107.46814,107.46814,0,0,1,12.52441.623,31.48529,31.48529,0,0,1,9.375,2.52637,27.17039,27.17039,0,0,1,8.93555,6.0791,26.64128,26.64128,0,0,1,5.89648,9.19141,30.668,30.668,0,0,1,2.01368,11.09668q0,12.01319-6.77539,19.18945-6.77491,7.17921-20.54395,10.18067a39.79711,39.79711,0,0,1,11.05957,9.082,92.19131,92.19131,0,0,1,9.41211,12.78125,94.99225,94.99225,0,0,1,6.44531,12.23047q2.30566,5.458,2.30664,7.50781a7.66519,7.66519,0,0,1-1.35547,4.21094,9.50227,9.50227,0,0,1-3.69824,3.29687,11.67878,11.67878,0,0,1-5.41992,1.208,10.55757,10.55757,0,0,1-6.15234-1.72168,16.51586,16.51586,0,0,1-4.28418-4.35742q-1.7959-2.63671-4.8711-7.76367l-8.71582-14.502a79.91376,79.91376,0,0,0-8.38574-12.1582,20.71548,20.71548,0,0,0-7.50781-5.71289A25.81342,25.81342,0,0,0,973.35742,715.752Zm12.45117-45.11718H965.74023v29.5166h19.48243a54.52851,54.52851,0,0,0,13.18359-1.35547,15.46322,15.46322,0,0,0,8.167-4.61328q2.81836-3.25928,2.81934-8.97266a13.86844,13.86844,0,0,0-2.27051-7.87305,13.72776,13.72776,0,0,0-6.29883-5.09082Q997.01465,670.63623,985.80859,670.63477Z" transform="translate(-87.36815 -253.50732)"/><path class="cls-11" d="M1188.2207,749.5166l-5.127-13.47656h-43.65234l-5.127,13.76953q-3.0044,8.0581-5.127,10.87695-2.12549,2.81837-6.958,2.81934a10.19832,10.19832,0,0,1-7.251-3.00293,9.19539,9.19539,0,0,1-3.14942-6.81152,15.198,15.198,0,0,1,.73242-4.541q.731-2.34375,2.417-6.51855l27.46582-69.72657q1.1704-3.00293,2.81933-7.21484a36.64331,36.64331,0,0,1,3.51563-6.99414,14.28442,14.28442,0,0,1,4.9082-4.50391,15.03783,15.03783,0,0,1,7.50684-1.72168,15.21013,15.21013,0,0,1,7.58105,1.72168,14.5794,14.5794,0,0,1,4.90625,4.43067,31.08679,31.08679,0,0,1,3.15039,5.82324q1.28028,3.11279,3.25879,8.3125l28.05176,69.28711q3.29589,7.91016,3.2959,11.499a9.52356,9.52356,0,0,1-3.11231,6.84863,10.237,10.237,0,0,1-7.50781,3.11231,9.74024,9.74024,0,0,1-4.39453-.915,9.011,9.011,0,0,1-3.07617-2.49023,22.90931,22.90931,0,0,1-2.67383-4.834Q1189.24707,752.00733,1188.2207,749.5166ZM1145.1543,719.707h32.08008l-16.18653-44.31152Z" transform="translate(-87.36815 -253.50732)"/><path class="cls-11" d="M1323.25,665.50781l41.82129,63.28125V664.92188q0-6.22413,2.67383-9.33887a9.02067,9.02067,0,0,1,7.21386-3.11231,9.30413,9.30413,0,0,1,7.39747,3.11231q2.70849,3.11426,2.71,9.33887v84.44824q0,14.13574-11.71875,14.13574a15.5184,15.5184,0,0,1-5.27344-.84277,13.36369,13.36369,0,0,1-4.39453-2.67286,25.99671,25.99671,0,0,1-3.8086-4.28418q-1.75781-2.45361-3.51562-5.01757l-40.7959-62.54883v62.915q0,6.15234-2.85645,9.30176a9.44788,9.44788,0,0,1-7.32421,3.14941,9.33367,9.33367,0,0,1-7.39746-3.18652q-2.78468-3.18457-2.78321-9.26465V668.21777a23.45457,23.45457,0,0,1,1.17188-8.27636,11.80992,11.80992,0,0,1,4.61426-5.38379,12.56624,12.56624,0,0,1,6.958-2.08692,11.40155,11.40155,0,0,1,8.67969,3.51563,26.57958,26.57958,0,0,1,3.22266,4.1748Q1321.4912,662.72607,1323.25,665.50781Z" transform="translate(-87.36815 -253.50732)"/><path class="cls-11" d="M1567.84961,727.76367a28.64212,28.64212,0,0,1-2.52637,11.09668,40.04756,40.04756,0,0,1-7.94726,11.71875,40.55059,40.55059,0,0,1-13.84278,9.33789,49.77825,49.77825,0,0,1-19.6289,3.58887,68.643,68.643,0,0,1-15.4541-1.61133,43.40332,43.40332,0,0,1-12.63477-5.0166,42.64542,42.64542,0,0,1-10.43652-8.97266,53.29675,53.29675,0,0,1-7.251-11.3164,58.887,58.887,0,0,1-4.50391-13.36621,72.7837,72.7837,0,0,1-1.502-15.08789,66.93521,66.93521,0,0,1,3.77148-23.21778,49.522,49.522,0,0,1,10.80372-17.541,47.122,47.122,0,0,1,16.47949-11.09668,53.37615,53.37615,0,0,1,20.1416-3.8086,50.32623,50.32623,0,0,1,23.21777,5.2002q10.17921,5.20166,15.60059,12.85351,5.41992,7.65528,5.41992,14.46582a9.429,9.429,0,0,1-2.63672,6.5918,8.35929,8.35929,0,0,1-6.37207,2.85645q-4.1748,0-6.26172-1.97754a27.36007,27.36007,0,0,1-4.65136-6.81153q-4.24806-7.98194-9.99707-11.93847-5.751-3.95508-14.17286-3.95508-13.40331,0-21.35058,10.18066-7.94678,10.18066-7.94629,28.93067,0,12.52441,3.51562,20.83691a26.30337,26.30337,0,0,0,9.96094,12.415,27.48489,27.48489,0,0,0,15.08789,4.10156q9.375,0,15.85645-4.65136,6.48339-4.64941,9.77832-13.65918a23.1629,23.1629,0,0,1,3.44238-6.9209q2.04932-2.67334,6.5918-2.67383a9.22255,9.22255,0,0,1,6.665,2.71A9.02547,9.02547,0,0,1,1567.84961,727.76367Z" transform="translate(-87.36815 -253.50732)"/><path class="cls-11" d="M1725.65723,671.07422h-48.999v26.36719h45.11719q4.98047,0,7.43457,2.23339a7.59784,7.59784,0,0,1,2.45313,5.89649,7.87835,7.87835,0,0,1-2.417,5.96875q-2.417,2.30859-7.4707,2.30762H1676.6582v30.542h50.6836q5.12549,0,7.72754,2.38086a8.17686,8.17686,0,0,1,2.59961,6.335,8.00266,8.00266,0,0,1-2.59961,6.18848q-2.60157,2.38184-7.72754,2.38085h-59.10645q-7.1045,0-10.2168-3.14941-3.11426-3.14795-3.11328-10.18066V667.63184a18.1089,18.1089,0,0,1,1.39161-7.6543,8.636,8.636,0,0,1,4.35839-4.32031,18.31263,18.31263,0,0,1,7.58008-1.35547h57.42188q5.20018,0,7.72656,2.30664a7.7967,7.7967,0,0,1,2.52734,6.043,7.878,7.878,0,0,1-2.52734,6.11523Q1730.85841,671.07519,1725.65723,671.07422Z" transform="translate(-87.36815 -253.50732)"/></g></svg>